<svg width="2000" height="1200" viewBox="0 0 2000 1200" xmlns="http://www.w3.org/2000/svg">
  <!-- OPTION 10: Multi-generational Family Legacy -->
  <defs>
    <linearGradient id="sky10" x1="0%" y1="0%" x2="0%" y2="100%">
      <stop offset="0%" stop-color="#E6E6FA"/>
      <stop offset="100%" stop-color="#F0F8FF"/>
    </linearGradient>
  </defs>
  
  <!-- Soft heritage sky -->
  <rect width="2000" height="750" fill="url(#sky10)"/>
  
  <!-- Heritage European architecture -->
  <rect x="100" y="400" width="300" height="800" fill="#F5DEB3"/>
  <polygon points="100,400 250,250 400,400" fill="#8B4513"/>
  
  <rect x="400" y="350" width="250" height="850" fill="#DDD"/>
  <polygon points="400,350 525,200 650,350" fill="#654321"/>
  
  <rect x="650" y="380" width="200" height="820" fill="#F0F0F0"/>
  <polygon points="650,380 750,230 850,380" fill="#8B4513"/>
  
  <rect x="850" y="320" width="300" height="880" fill="#F5F5DC"/>
  <polygon points="850,320 1000,150 1150,320" fill="#654321"/>
  
  <rect x="1150" y="360" width="250" height="840" fill="#E6E6FA"/>
  <polygon points="1150,360 1275,210 1400,360" fill="#8B4513"/>
  
  <rect x="1400" y="390" width="280" height="810" fill="#DEB887"/>
  <polygon points="1400,390 1540,240 1680,390" fill="#654321"/>
  
  <rect x="1680" y="420" width="220" height="780" fill="#F0E68C"/>
  <polygon points="1680,420 1790,270 1900,420" fill="#8B4513"/>
  
  <!-- Heritage stone ground -->
  <rect x="0" y="950" width="2000" height="250" fill="#D2B48C"/>
  
  <!-- Multi-generational legacy portrait -->
  <g transform="translate(650, 550)">
    
    <!-- Back row - Great-grandparents (painted portraits on wall) -->
    <g transform="translate(-100, -200)" opacity="0.7">
      <rect x="0" y="0" width="120" height="150" fill="#8B4513" rx="10"/>
      <rect x="10" y="10" width="100" height="130" fill="#F5F5DC"/>
      <!-- Great-grandfather portrait -->
      <circle cx="60" cy="60" r="30" fill="#FDBCB4"/>
      <path d="M 30 45 Q 60 20 90 45" fill="#E6E6FA"/>
      <rect x="40" y="85" width="40" height="50" fill="#2F2F2F"/>
      <text x="60" y="125" text-anchor="middle" font-size="8" fill="#8B4513">1890-1960</text>
    </g>
    
    <g transform="translate(200, -200)" opacity="0.7">
      <rect x="0" y="0" width="120" height="150" fill="#8B4513" rx="10"/>
      <rect x="10" y="10" width="100" height="130" fill="#F5F5DC"/>
      <!-- Great-grandmother portrait -->
      <circle cx="60" cy="60" r="30" fill="#FDBCB4"/>
      <path d="M 30 45 Q 60 20 90 45" fill="#F0F0F0"/>
      <path d="M 40 85 L 80 85 L 85 125 L 35 125 Z" fill="#4B0082"/>
      <text x="60" y="125" text-anchor="middle" font-size="8" fill="#8B4513">1895-1965</text>
    </g>
    
    <!-- Middle back - Grandparents -->
    <!-- Grandfather -->
    <g transform="translate(-150, 20)">
      <circle cx="60" cy="60" r="45" fill="#FDBCB4"/>
      <path d="M 15 45 Q 60 10 105 45" fill="#E6E6FA"/>
      <rect x="30" y="100" width="60" height="110" rx="15" fill="#2F4F4F"/>
      <rect x="10" y="110" width="25" height="85" rx="12" fill="#FDBCB4"/>
      <rect x="85" y="110" width="25" height="85" rx="12" fill="#FDBCB4"/>
      <rect x="40" y="210" width="20" height="95" fill="#2F4F4F"/>
      <rect x="60" y="210" width="20" height="95" fill="#2F4F4F"/>
      <ellipse cx="50" cy="310" rx="12" ry="8" fill="#000"/>
      <ellipse cx="70" cy="310" rx="12" ry="8" fill="#000"/>
      <!-- Wise expression -->
      <circle cx="50" cy="50" r="3" fill="#000"/>
      <circle cx="70" cy="50" r="3" fill="#000"/>
      <path d="M 45 70 Q 60 80 75 70" stroke="#000" stroke-width="3" fill="none"/>
    </g>
    
    <!-- Grandmother -->
    <g transform="translate(250, 30)">
      <circle cx="60" cy="60" r="45" fill="#FDBCB4"/>
      <path d="M 15 45 Q 60 10 105 45" fill="#F0F0F0"/>
      <path d="M 30 100 L 90 100 L 100 210 L 20 210 Z" fill="#8B008B"/>
      <rect x="10" y="110" width="25" height="75" rx="12" fill="#FDBCB4"/>
      <rect x="85" y="110" width="25" height="75" rx="12" fill="#FDBCB4"/>
      <rect x="40" y="210" width="20" height="95" fill="#8B008B"/>
      <rect x="60" y="210" width="20" height="95" fill="#8B008B"/>
      <ellipse cx="50" cy="310" rx="10" ry="6" fill="#000"/>
      <ellipse cx="70" cy="310" rx="10" ry="6" fill="#000"/>
      <!-- Wise expression -->
      <circle cx="50" cy="50" r="3" fill="#000"/>
      <circle cx="70" cy="50" r="3" fill="#000"/>
      <path d="M 45 70 Q 60 80 75 70" stroke="#000" stroke-width="3" fill="none"/>
    </g>
    
    <!-- Center - Parents with generational documents -->
    <!-- Father with family heritage documents -->
    <g transform="translate(-50, 100)">
      <circle cx="70" cy="70" r="50" fill="#FDBCB4"/>
      <path d="M 20 55 Q 70 15 120 55" fill="#8B4513"/>
      <rect x="35" y="115" width="70" height="120" rx="18" fill="#006400"/>
      <rect x="10" y="125" width="30" height="90" rx="15" fill="#FDBCB4"/>
      <rect x="105" y="125" width="30" height="90" rx="15" fill="#FDBCB4"/>
      
      <!-- Multi-generational Polish documents -->
      <g transform="translate(120, 150)">
        <!-- Main Polish passport -->
        <rect x="0" y="0" width="40" height="55" fill="#8B0000" rx="3"/>
        <rect x="3" y="3" width="34" height="25" fill="#FFF"/>
        <text x="20" y="13" text-anchor="middle" font-size="6" font-weight="bold" fill="#8B0000">FAMILY</text>
        <text x="20" y="20" text-anchor="middle" font-size="5" font-weight="bold" fill="#8B0000">HERITAGE</text>
        <circle cx="20" cy="35" r="8" fill="#FFD700"/>
        <text x="20" y="40" text-anchor="middle" font-size="6" font-weight="bold" fill="#8B0000">PL</text>
        <text x="20" y="50" text-anchor="middle" font-size="4" fill="#FFF">3 GENERATIONS</text>
        
        <!-- Genealogy documents -->
        <rect x="-20" y="10" width="35" height="45" fill="#F5F5DC" opacity="0.9" transform="rotate(-15)"/>
        <text x="-10" y="25" font-size="3" fill="#8B4513" transform="rotate(-15)">GENEALOGY</text>
        <text x="-10" y="30" font-size="3" fill="#8B4513" transform="rotate(-15)">TREE</text>
        
        <rect x="25" y="15" width="35" height="45" fill="#F5F5DC" opacity="0.9" transform="rotate(10)"/>
        <text x="35" y="30" font-size="3" fill="#8B4513" transform="rotate(10)">BIRTH</text>
        <text x="35" y="35" font-size="3" fill="#8B4513" transform="rotate(10)">CERTIFICATES</text>
      </g>
      
      <rect x="45" y="235" width="25" height="105" fill="#000080"/>
      <rect x="75" y="235" width="25" height="105" fill="#000080"/>
      <ellipse cx="57" cy="345" rx="13" ry="8" fill="#000"/>
      <ellipse cx="87" cy="345" rx="13" ry="8" fill="#000"/>
      <!-- Proud heritage expression -->
      <circle cx="60" cy="60" r="3" fill="#000"/>
      <circle cx="80" cy="60" r="3" fill="#000"/>
      <path d="M 55 85 Q 70 95 85 85" stroke="#000" stroke-width="3" fill="none"/>
    </g>
    
    <!-- Mother -->
    <g transform="translate(150, 110)">
      <circle cx="70" cy="70" r="50" fill="#FDBCB4"/>
      <path d="M 20 55 Q 70 15 120 55" fill="#FFD700"/>
      <path d="M 35 115 L 105 115 L 115 235 L 25 235 Z" fill="#8B0000"/>
      <rect x="10" y="125" width="30" height="85" rx="15" fill="#FDBCB4"/>
      <rect x="105" y="125" width="30" height="85" rx="15" fill="#FDBCB4"/>
      <rect x="45" y="235" width="25" height="105" fill="#8B0000"/>
      <rect x="75" y="235" width="25" height="105" fill="#8B0000"/>
      <ellipse cx="57" cy="345" rx="11" ry="7" fill="#000"/>
      <ellipse cx="87" cy="345" rx="11" ry="7" fill="#000"/>
      <!-- Proud heritage expression -->
      <circle cx="60" cy="60" r="3" fill="#000"/>
      <circle cx="80" cy="60" r="3" fill="#000"/>
      <path d="M 55 85 Q 70 95 85 85" stroke="#000" stroke-width="3" fill="none"/>
    </g>
    
    <!-- Front - Children (next generation) -->
    <!-- Older child -->
    <g transform="translate(-20, 250)">
      <circle cx="50" cy="50" r="40" fill="#FDBCB4"/>
      <path d="M 10 35 Q 50 5 90 35" fill="#8B4513"/>
      <rect x="25" y="85" width="50" height="85" rx="12" fill="#8B0000"/>
      <rect x="5" y="95" width="20" height="65" rx="10" fill="#FDBCB4"/>
      <rect x="75" y="95" width="20" height="65" rx="10" fill="#FDBCB4"/>
      <rect x="35" y="170" width="15" height="75" fill="#2F4F4F"/>
      <rect x="50" y="170" width="15" height="75" fill="#2F4F4F"/>
      <ellipse cx="42" cy="250" rx="8" ry="5" fill="#000"/>
      <ellipse cx="57" cy="250" rx="8" ry="5" fill="#000"/>
      <!-- Proud next-generation expression -->
      <circle cx="42" cy="42" r="2.5" fill="#000"/>
      <circle cx="58" cy="42" r="2.5" fill="#000"/>
      <path d="M 38 60 Q 50 68 62 60" stroke="#000" stroke-width="2" fill="none"/>
    </g>
    
    <!-- Younger child -->
    <g transform="translate(120, 270)">
      <circle cx="40" cy="40" r="35" fill="#FDBCB4"/>
      <path d="M 5 25 Q 40 0 75 25" fill="#FFD700"/>
      <rect x="20" y="70" width="40" height="70" rx="10" fill="#FFF"/>
      <rect x="5" y="80" width="15" height="55" rx="8" fill="#FDBCB4"/>
      <rect x="60" y="80" width="15" height="55" rx="8" fill="#FDBCB4"/>
      <rect x="28" y="140" width="12" height="65" fill="#2F4F4F"/>
      <rect x="40" y="140" width="12" height="65" fill="#2F4F4F"/>
      <ellipse cx="34" cy="210" rx="7" ry="4" fill="#000"/>
      <ellipse cx="46" cy="210" rx="7" ry="4" fill="#000"/>
      <!-- Proud next-generation expression -->
      <circle cx="32" cy="32" r="2" fill="#000"/>
      <circle cx="48" cy="32" r="2" fill="#000"/>
      <path d="M 28 48 Q 40 56 52 48" stroke="#000" stroke-width="2" fill="none"/>
    </g>
    
  </g>
  
  <!-- Heritage timeline banner -->
  <g transform="translate(100, 1100)">
    <rect x="0" y="0" width="1800" height="80" fill="#8B4513" opacity="0.8"/>
    <text x="900" y="30" text-anchor="middle" font-size="20" font-weight="bold" fill="#FFD700">Polish Heritage: From Great-Grandparents to Future Generations</text>
    <text x="300" y="55" text-anchor="middle" font-size="14" fill="#FFF">1890s</text>
    <text x="600" y="55" text-anchor="middle" font-size="14" fill="#FFF">1950s</text>
    <text x="900" y="55" text-anchor="middle" font-size="14" fill="#FFF">1980s</text>
    <text x="1200" y="55" text-anchor="middle" font-size="14" fill="#FFF">2010s</text>
    <text x="1500" y="55" text-anchor="middle" font-size="14" fill="#FFF">Future</text>
    <text x="900" y="70" text-anchor="middle" font-size="12" font-style="italic" fill="#FFD700">Citizenship by Descent - Connecting Generations</text>
  </g>
  

</svg>