<svg viewBox="0 0 800 400" xmlns="http://www.w3.org/2000/svg">
  <!-- European city skyline background -->
  <defs>
    <linearGradient id="skyGradient" x1="0%" y1="0%" x2="0%" y2="100%">
      <stop offset="0%" style="stop-color:#87CEEB"/>
      <stop offset="100%" style="stop-color:#E0F6FF"/>
    </linearGradient>
    <linearGradient id="buildingGradient" x1="0%" y1="0%" x2="0%" y2="100%">
      <stop offset="0%" style="stop-color:#D2B48C"/>
      <stop offset="100%" style="stop-color:#8B7355"/>
    </linearGradient>
  </defs>
  
  <!-- Sky background -->
  <rect width="800" height="400" fill="url(#skyGradient)"/>
  
  <!-- European buildings silhouette -->
  <rect x="50" y="220" width="80" height="180" fill="url(#buildingGradient)"/>
  <rect x="150" y="180" width="60" height="220" fill="url(#buildingGradient)"/>
  <rect x="230" y="200" width="70" height="200" fill="url(#buildingGradient)"/>
  <rect x="320" y="160" width="90" height="240" fill="url(#buildingGradient)"/>
  <rect x="430" y="190" width="75" height="210" fill="url(#buildingGradient)"/>
  <rect x="520" y="170" width="65" height="230" fill="url(#buildingGradient)"/>
  <rect x="600" y="200" width="85" height="200" fill="url(#buildingGradient)"/>
  <rect x="700" y="210" width="70" height="190" fill="url(#buildingGradient)"/>
  
  <!-- Building details -->
  <rect x="60" y="240" width="8" height="12" fill="#F0E68C"/>
  <rect x="80" y="250" width="8" height="12" fill="#F0E68C"/>
  <rect x="60" y="280" width="8" height="12" fill="#F0E68C"/>
  
  <!-- Family group (3 generations) -->
  <g transform="translate(200, 250)">
    <!-- Grandparents (back) -->
    <!-- Grandfather -->
    <ellipse cx="50" cy="40" rx="15" ry="20" fill="#FFE0BD"/>
    <circle cx="50" cy="35" r="12" fill="#FFE0BD"/>
    <rect x="35" y="50" width="30" height="40" fill="#4A5568" rx="5"/>
    <rect x="45" y="30" width="10" height="10" fill="#8B4513"/>
    
    <!-- Grandmother -->
    <ellipse cx="100" cy="40" rx="15" ry="20" fill="#FFE0BD"/>
    <circle cx="100" cy="35" r="12" fill="#FFE0BD"/>
    <rect x="85" y="50" width="30" height="40" fill="#8B008B" rx="5"/>
    <rect x="95" y="25" width="10" height="15" fill="#D2691E"/>
    
    <!-- Parents (middle) -->
    <!-- Father with Polish passport -->
    <ellipse cx="25" cy="80" rx="18" ry="25" fill="#FFE0BD"/>
    <circle cx="25" cy="70" r="15" fill="#FFE0BD"/>
    <rect x="7" y="95" width="36" height="50" fill="#2D3748" rx="5"/>
    <rect x="20" y="60" width="10" height="12" fill="#4B5563"/>
    
    <!-- Polish passport in father's hand -->
    <rect x="45" y="105" width="12" height="16" fill="#DC143C" rx="1"/>
    <rect x="46" y="106" width="10" height="14" fill="#FFF" rx="1"/>
    <text x="51" y="115" text-anchor="middle" font-size="4" fill="#DC143C">🇵🇱</text>
    
    <!-- Mother -->
    <ellipse cx="125" cy="80" rx="18" ry="25" fill="#FFE0BD"/>
    <circle cx="125" cy="70" r="15" fill="#FFE0BD"/>
    <rect x="107" y="95" width="36" height="50" fill="#1E40AF" rx="5"/>
    <rect x="120" y="55" width="10" height="20" fill="#8B4513"/>
    
    <!-- Children (front) -->
    <!-- Boy -->
    <ellipse cx="65" cy="120" rx="12" ry="18" fill="#FFE0BD"/>
    <circle cx="65" cy="112" r="10" fill="#FFE0BD"/>
    <rect x="53" y="130" width="24" height="35" fill="#059669" rx="3"/>
    <rect x="62" y="105" width="6" height="8" fill="#4B5563"/>
    
    <!-- Girl -->
    <ellipse cx="90" cy="120" rx="12" ry="18" fill="#FFE0BD"/>
    <circle cx="90" cy="112" r="10" fill="#FFE0BD"/>
    <rect x="78" y="130" width="24" height="35" fill="#EC4899" rx="3"/>
    <rect x="87" y="102" width="6" height="12" fill="#8B4513"/>
  </g>
  
  <!-- Polish eagle emblem in sky -->
  <g transform="translate(600, 80) scale(0.8)">
    <circle cx="0" cy="0" r="25" fill="#FFF" opacity="0.9"/>
    <path d="M -15,-10 L 0,-20 L 15,-10 L 10,0 L 15,10 L 0,15 L -15,10 L -10,0 Z" fill="#DC143C"/>
    <circle cx="0" cy="-8" r="3" fill="#FFD700"/>
  </g>
  
  <!-- European Union stars -->
  <g transform="translate(100, 60)">
    <circle cx="0" cy="0" r="2" fill="#FFD700"/>
    <circle cx="20" cy="-5" r="2" fill="#FFD700"/>
    <circle cx="40" cy="0" r="2" fill="#FFD700"/>
    <circle cx="60" cy="-3" r="2" fill="#FFD700"/>
  </g>
  
  <!-- Subtle text overlay -->
  <text x="400" y="50" text-anchor="middle" font-size="18" font-weight="bold" fill="#2D3748" opacity="0.8">Polish Citizenship by Descent</text>
  <text x="400" y="380" text-anchor="middle" font-size="12" fill="#4A5568" opacity="0.7">Connecting Generations • European Heritage • Family Legacy</text>
</svg>