<svg width="2000" height="1200" viewBox="0 0 2000 1200" xmlns="http://www.w3.org/2000/svg">
  <!-- OPTION 6: Family at Polish Consulate/Embassy -->
  <defs>
    <linearGradient id="sky6" x1="0%" y1="0%" x2="0%" y2="100%">
      <stop offset="0%" stop-color="#F0F8FF"/>
      <stop offset="100%" stop-color="#E0E6FF"/>
    </linearGradient>
  </defs>
  
  <!-- Professional building background -->
  <rect width="2000" height="750" fill="url(#sky6)"/>
  
  <!-- Official government building -->
  <rect x="200" y="300" width="1600" height="900" fill="#F5F5DC"/>
  <polygon points="200,300 1000,150 1800,300" fill="#8B4513"/>
  
  <!-- Classical columns -->
  <rect x="400" y="400" width="80" height="800" fill="#FFF"/>
  <rect x="600" y="400" width="80" height="800" fill="#FFF"/>
  <rect x="800" y="400" width="80" height="800" fill="#FFF"/>
  <rect x="1000" y="400" width="80" height="800" fill="#FFF"/>
  <rect x="1200" y="400" width="80" height="800" fill="#FFF"/>
  <rect x="1400" y="400" width="80" height="800" fill="#FFF"/>
  <rect x="1600" y="400" width="80" height="800" fill="#FFF"/>
  
  <!-- Polish eagle emblem on building -->
  <g transform="translate(950, 500)">
    <circle cx="50" cy="50" r="60" fill="#8B0000"/>
    <circle cx="50" cy="50" r="50" fill="#FFF"/>
    <text x="50" y="60" text-anchor="middle" font-size="20" font-weight="bold" fill="#8B0000">🦅</text>
    <text x="50" y="85" text-anchor="middle" font-size="8" font-weight="bold" fill="#8B0000">POLSKA</text>
  </g>
  
  <!-- Steps leading to building -->
  <rect x="300" y="1000" width="1400" height="50" fill="#D3D3D3"/>
  <rect x="350" y="1050" width="1300" height="50" fill="#C0C0C0"/>
  <rect x="400" y="1100" width="1200" height="100" fill="#A9A9A9"/>
  
  <!-- Family completing citizenship process -->
  <g transform="translate(700, 750)">
    
    <!-- Grandparents (proud and formal) -->
    <!-- Grandfather in formal attire -->
    <g transform="translate(-250, 0)">
      <circle cx="60" cy="60" r="45" fill="#FDBCB4"/>
      <path d="M 15 45 Q 60 10 105 45" fill="#E6E6FA"/>
      <rect x="30" y="100" width="60" height="120" rx="15" fill="#2F2F2F"/> <!-- Formal suit -->
      <rect x="35" y="105" width="50" height="15" fill="#FFF"/> <!-- White shirt collar -->
      <rect x="55" y="110" width="10" height="40" fill="#8B0000"/> <!-- Red tie -->
      <rect x="10" y="110" width="25" height="90" rx="12" fill="#FDBCB4"/>
      <rect x="85" y="110" width="25" height="90" rx="12" fill="#FDBCB4"/>
      <rect x="40" y="220" width="20" height="100" fill="#2F2F2F"/>
      <rect x="60" y="220" width="20" height="100" fill="#2F2F2F"/>
      <ellipse cx="50" cy="325" rx="12" ry="8" fill="#000"/>
      <ellipse cx="70" cy="325" rx="12" ry="8" fill="#000"/>
      <!-- Proud expression -->
      <circle cx="50" cy="50" r="3" fill="#000"/>
      <circle cx="70" cy="50" r="3" fill="#000"/>
      <path d="M 45 70 Q 60 80 75 70" stroke="#000" stroke-width="3" fill="none"/>
    </g>
    
    <!-- Grandmother in elegant dress -->
    <g transform="translate(-100, 10)">
      <circle cx="60" cy="60" r="45" fill="#FDBCB4"/>
      <path d="M 15 45 Q 60 10 105 45" fill="#F0F0F0"/>
      <path d="M 30 100 L 90 100 L 100 220 L 20 220 Z" fill="#4B0082"/> <!-- Elegant purple dress -->
      <rect x="10" y="110" width="25" height="80" rx="12" fill="#FDBCB4"/>
      <rect x="85" y="110" width="25" height="80" rx="12" fill="#FDBCB4"/>
      <rect x="40" y="220" width="20" height="90" fill="#4B0082"/>
      <rect x="60" y="220" width="20" height="90" fill="#4B0082"/>
      <ellipse cx="50" cy="315" rx="10" ry="6" fill="#000"/>
      <ellipse cx="70" cy="315" rx="10" ry="6" fill="#000"/>
      <!-- Proud expression -->
      <circle cx="50" cy="50" r="3" fill="#000"/>
      <circle cx="70" cy="50" r="3" fill="#000"/>
      <path d="M 45 70 Q 60 80 75 70" stroke="#000" stroke-width="3" fill="none"/>
    </g>
    
    <!-- Father presenting documents -->
    <g transform="translate(80, -30)">
      <circle cx="70" cy="70" r="50" fill="#FDBCB4"/>
      <path d="M 20 55 Q 70 15 120 55" fill="#8B4513"/>
      <rect x="35" y="115" width="70" height="130" rx="18" fill="#1C1C1C"/> <!-- Formal black suit -->
      <rect x="40" y="120" width="60" height="20" fill="#FFF"/> <!-- White shirt -->
      <rect x="65" y="125" width="10" height="50" fill="#000080"/> <!-- Blue tie -->
      <rect x="10" y="125" width="30" height="95" rx="15" fill="#FDBCB4"/>
      <rect x="105" y="125" width="30" height="95" rx="15" fill="#FDBCB4"/>
      
      <!-- Official documents and Polish passport -->
      <g transform="translate(120, 150)">
        <!-- Main Polish passport -->
        <rect x="0" y="0" width="40" height="55" fill="#8B0000" rx="3"/>
        <rect x="3" y="3" width="34" height="25" fill="#FFF"/>
        <text x="20" y="13" text-anchor="middle" font-size="6" font-weight="bold" fill="#8B0000">PASSPORT</text>
        <text x="20" y="20" text-anchor="middle" font-size="5" font-weight="bold" fill="#8B0000">POLAND</text>
        <circle cx="20" cy="35" r="8" fill="#FFD700"/>
        <text x="20" y="40" text-anchor="middle" font-size="6" font-weight="bold" fill="#8B0000">PL</text>
        <text x="20" y="50" text-anchor="middle" font-size="4" fill="#FFF">POLSKA</text>
        
        <!-- Additional documents -->
        <rect x="-15" y="10" width="30" height="40" fill="#FFF" opacity="0.9" transform="rotate(-10)"/>
        <rect x="25" y="15" width="30" height="40" fill="#FFF" opacity="0.9" transform="rotate(5)"/>
      </g>
      
      <rect x="45" y="245" width="25" height="110" fill="#1C1C1C"/>
      <rect x="75" y="245" width="25" height="110" fill="#1C1C1C"/>
      <ellipse cx="57" cy="360" rx="13" ry="8" fill="#000"/>
      <ellipse cx="87" cy="360" rx="13" ry="8" fill="#000"/>
      <!-- Professional confident expression -->
      <circle cx="60" cy="60" r="3" fill="#000"/>
      <circle cx="80" cy="60" r="3" fill="#000"/>
      <path d="M 55 85 Q 70 95 85 85" stroke="#000" stroke-width="3" fill="none"/>
    </g>
    
    <!-- Mother in professional attire -->
    <g transform="translate(250, -20)">
      <circle cx="70" cy="70" r="50" fill="#FDBCB4"/>
      <path d="M 20 55 Q 70 15 120 55" fill="#FFD700"/>
      <path d="M 35 115 L 105 115 L 115 245 L 25 245 Z" fill="#2F2F2F"/> <!-- Professional dress -->
      <rect x="10" y="125" width="30" height="90" rx="15" fill="#FDBCB4"/>
      <rect x="105" y="125" width="30" height="90" rx="15" fill="#FDBCB4"/>
      <rect x="45" y="245" width="25" height="110" fill="#2F2F2F"/>
      <rect x="75" y="245" width="25" height="110" fill="#2F2F2F"/>
      <ellipse cx="57" cy="360" rx="11" ry="7" fill="#000"/>
      <ellipse cx="87" cy="360" rx="11" ry="7" fill="#000"/>
      <!-- Professional confident expression -->
      <circle cx="60" cy="60" r="3" fill="#000"/>
      <circle cx="80" cy="60" r="3" fill="#000"/>
      <path d="M 55 85 Q 70 95 85 85" stroke="#000" stroke-width="3" fill="none"/>
    </g>
    
    <!-- Children in smart casual -->
    <!-- Older child -->
    <g transform="translate(420, 50)">
      <circle cx="50" cy="50" r="40" fill="#FDBCB4"/>
      <path d="M 10 35 Q 50 5 90 35" fill="#8B4513"/>
      <rect x="25" y="85" width="50" height="90" rx="12" fill="#000080"/> <!-- Smart blue shirt -->
      <rect x="5" y="95" width="20" height="70" rx="10" fill="#FDBCB4"/>
      <rect x="75" y="95" width="20" height="70" rx="10" fill="#FDBCB4"/>
      <rect x="35" y="175" width="15" height="80" fill="#2F2F2F"/> <!-- Dark trousers -->
      <rect x="50" y="175" width="15" height="80" fill="#2F2F2F"/>
      <ellipse cx="42" cy="260" rx="8" ry="5" fill="#000"/>
      <ellipse cx="57" cy="260" rx="8" ry="5" fill="#000"/>
      <!-- Proud expression -->
      <circle cx="42" cy="42" r="2.5" fill="#000"/>
      <circle cx="58" cy="42" r="2.5" fill="#000"/>
      <path d="M 38 60 Q 50 68 62 60" stroke="#000" stroke-width="2" fill="none"/>
    </g>
    
    <!-- Younger child -->
    <g transform="translate(550, 80)">
      <circle cx="40" cy="40" r="35" fill="#FDBCB4"/>
      <path d="M 5 25 Q 40 0 75 25" fill="#FFD700"/>
      <rect x="20" y="70" width="40" height="75" rx="10" fill="#8B0000"/> <!-- Smart red top -->
      <rect x="5" y="80" width="15" height="60" rx="8" fill="#FDBCB4"/>
      <rect x="60" y="80" width="15" height="60" rx="8" fill="#FDBCB4"/>
      <rect x="28" y="145" width="12" height="70" fill="#2F2F2F"/>
      <rect x="40" y="145" width="12" height="70" fill="#2F2F2F"/>
      <ellipse cx="34" cy="220" rx="7" ry="4" fill="#000"/>
      <ellipse cx="46" cy="220" rx="7" ry="4" fill="#000"/>
      <!-- Proud expression -->
      <circle cx="32" cy="32" r="2" fill="#000"/>
      <circle cx="48" cy="32" r="2" fill="#000"/>
      <path d="M 28 48 Q 40 56 52 48" stroke="#000" stroke-width="2" fill="none"/>
    </g>
    
  </g>
  
  <!-- Official atmosphere elements -->
  <g opacity="0.5">
    <!-- Polish flags -->
    <g transform="translate(300, 600)">
      <rect x="0" y="0" width="5" height="100" fill="#8B4513"/>
      <rect x="5" y="0" width="60" height="30" fill="#FFF"/>
      <rect x="5" y="30" width="60" height="30" fill="#DC143C"/>
    </g>
    <g transform="translate(1650, 600)">
      <rect x="0" y="0" width="5" height="100" fill="#8B4513"/>
      <rect x="5" y="0" width="60" height="30" fill="#FFF"/>
      <rect x="5" y="30" width="60" height="30" fill="#DC143C"/>
    </g>
  </g>
  

</svg>